<?xml version="1.0" encoding="utf-8"?>
<!-- Generator: Adobe Illustrator 24.0.0, SVG Export Plug-In . SVG Version: 6.00 Build 0)  -->
<svg version="1.1" id="Layer_1" xmlns="http://www.w3.org/2000/svg" xmlns:xlink="http://www.w3.org/1999/xlink" x="0px" y="0px"
	 viewBox="0 0 94 94" style="enable-background:new 0 0 94 94;" xml:space="preserve" fill="#FFFFFF">

<path class="st0" d="M10.7,73.3l3.8,6.5c0.8,1.4,1.9,2.4,3.2,3.2l13.5-23.3H4.3c0,1.5,0.4,3,1.2,4.4L10.7,73.3z"/>
<path class="st1" d="M47,32.3L33.5,9c-1.3,0.8-2.4,1.9-3.2,3.2L5.4,55.3c-0.8,1.4-1.2,2.9-1.2,4.4h26.9L47,32.3z"/>
<path class="st2" d="M47,32.3L60.5,9c-1.3-0.8-2.8-1.2-4.4-1.2H37.9c-1.6,0-3.1,0.4-4.4,1.2L47,32.3z"/>
<path class="st3" d="M62.8,59.7H31.2L17.7,83c1.3,0.8,2.8,1.2,4.4,1.2h49.7c1.6,0,3.1-0.4,4.4-1.2L62.8,59.7z"/>
<path class="st4" d="M76.3,83c1.3-0.8,2.4-1.9,3.2-3.2l1.6-2.7l7.5-13c0.8-1.4,1.2-2.9,1.2-4.4H62.9L76.3,83z"/>
<path class="st5" d="M76.1,33.8L63.7,12.2c-0.8-1.4-1.9-2.4-3.2-3.2L47,32.3l15.8,27.4h26.9c0-1.5-0.4-3-1.2-4.4L76.1,33.8z"/>
</svg>
