<?xml version="1.0" standalone="no"?>
<!DOCTYPE svg PUBLIC "-//W3C//DTD SVG 20010904//EN"
 "http://www.w3.org/TR/2001/REC-SVG-20010904/DTD/svg10.dtd">
<svg version="1.0" xmlns="http://www.w3.org/2000/svg"
 width="300.000000pt" height="61.000000pt" viewBox="0 0 300.000000 61.000000"
 preserveAspectRatio="xMidYMid meet">
<metadata>
Created by potrace 1.10, written by Peter Selinger 2001-2011
</metadata>
<g transform="translate(0.000000,61.000000) scale(0.100000,-0.100000)"
fill="#ff296c" stroke="none">
<path d="M403 493 c-43 -6 -55 -29 -41 -79 10 -37 5 -205 -8 -237 -3 -8 1 -21
9 -29 12 -11 37 -14 118 -10 57 2 108 8 113 13 6 5 19 32 31 60 12 28 26 50
31 50 5 0 11 -17 14 -38 6 -42 33 -63 83 -63 16 0 42 -8 57 -17 26 -15 31 -15
52 -1 20 13 27 14 42 3 13 -10 25 -11 45 -4 14 6 48 8 74 4 39 -5 56 -2 83 14
33 20 34 20 34 1 0 -29 38 -36 63 -11 18 17 19 24 9 46 -13 29 -16 91 -4 98 6
4 100 -21 111 -29 2 -2 -10 -19 -28 -39 -37 -42 -39 -68 -9 -89 20 -15 24 -14
45 6 13 12 23 26 23 32 0 20 35 126 41 126 4 0 13 -30 20 -66 16 -78 30 -97
63 -84 14 5 40 4 66 -2 38 -10 45 -9 60 8 9 10 25 24 35 30 24 13 31 49 16 78
-6 12 -20 51 -30 88 l-19 66 40 -2 c56 -3 62 -17 54 -151 -6 -101 -5 -114 10
-123 23 -13 54 -3 62 19 4 10 3 61 -2 112 -5 52 -6 105 -3 119 6 24 9 24 84
21 46 -2 81 -8 86 -16 9 -13 3 -169 -7 -186 -4 -7 -15 -7 -31 -1 -18 7 -28 5
-40 -6 -17 -18 -19 -29 -6 -53 8 -15 24 -17 123 -15 103 3 115 5 131 25 17 21
18 21 30 4 10 -13 31 -18 94 -20 45 -2 90 -6 101 -9 12 -4 26 0 37 10 12 12
19 14 28 5 19 -19 157 -13 197 8 l34 19 2 77 1 77 -46 20 c-99 41 -114 49
-105 58 5 5 30 5 58 -1 77 -14 122 24 77 65 -17 16 -24 16 -55 5 -32 -12 -40
-11 -67 5 -26 15 -33 16 -47 4 -43 -33 -58 -37 -78 -18 -17 16 -31 17 -117 13
-107 -6 -97 0 -153 -86 -21 -33 -24 -46 -18 -88 4 -27 13 -54 20 -60 27 -22
15 -34 -35 -35 -47 -2 -49 -1 -55 28 -17 85 7 175 43 163 27 -8 65 26 57 52
-9 27 -30 35 -62 23 -33 -13 -121 -13 -129 0 -3 5 -20 10 -38 10 -18 0 -41 0
-52 0 -11 -1 -48 -3 -82 -6 -38 -4 -69 -1 -83 6 -17 9 -25 9 -38 -3 -14 -13
-31 -14 -101 -6 l-83 9 -34 -32 c-35 -34 -41 -56 -24 -89 6 -10 7 -19 3 -19
-18 0 -89 26 -110 39 -19 13 -20 16 -6 37 8 13 12 32 8 43 -7 24 -43 37 -57
23 -6 -6 -24 -8 -40 -5 -24 5 -30 2 -35 -16 l-6 -22 -18 20 c-15 16 -27 19
-52 14 -17 -3 -34 -7 -36 -9 -2 -2 -17 4 -32 13 -28 17 -29 17 -66 -20 -32
-32 -37 -43 -35 -77 3 -38 -9 -52 -23 -30 -4 7 -24 8 -50 5 -27 -5 -45 -3 -49
4 -4 6 -15 11 -26 11 -10 0 -20 7 -24 15 -10 26 54 33 105 11 24 -11 63 26 55
51 -10 31 -29 34 -109 22 -86 -13 -107 -23 -107 -50 0 -23 -18 -61 -34 -71
-20 -14 -27 -8 -16 11 14 27 15 27 -31 71 -34 32 -49 40 -80 40 -21 0 -41 5
-44 10 -3 6 -12 9 -18 8 -7 0 -27 -3 -44 -5z m63 -25 c4 -5 23 -8 43 -8 27 -1
44 -9 70 -35 21 -21 31 -39 28 -49 -10 -25 -25 -19 -43 19 -9 20 -21 38 -26
41 -5 3 -39 3 -74 -1 l-65 -7 2 -101 c2 -108 13 -163 29 -137 7 12 13 12 34 1
51 -28 136 10 136 61 0 10 5 18 11 18 5 0 8 4 5 9 -10 15 12 61 29 61 23 0 18
-21 -24 -101 l-38 -74 -74 -6 c-41 -4 -79 -2 -86 3 -7 6 -14 5 -18 -2 -4 -6
-12 -9 -17 -8 -11 4 -15 299 -5 315 6 10 73 10 83 1z m590 -5 c53 6 76 -6 54
-27 -13 -13 -22 -14 -52 -4 -60 18 -114 -14 -130 -79 -5 -19 1 -24 54 -42 37
-12 66 -17 75 -12 11 6 3 11 -29 19 -23 6 -52 13 -63 14 -24 4 -32 36 -11 44
8 3 27 -3 43 -14 15 -11 51 -28 80 -37 45 -14 81 -45 51 -45 -6 0 -9 -13 -6
-32 3 -18 3 -39 1 -46 -8 -21 -77 -52 -94 -41 -19 12 -66 11 -89 -1 -22 -12
-43 8 -31 29 6 10 18 11 42 5 52 -13 61 -12 102 14 20 14 37 25 37 26 0 1 4
16 9 34 7 24 6 32 -3 32 -9 0 -12 -9 -9 -24 7 -33 -12 -40 -44 -17 -16 10 -54
27 -86 37 -55 16 -58 18 -51 43 4 14 8 41 8 60 1 21 7 36 16 39 8 3 21 13 28
24 11 15 17 16 34 7 12 -6 40 -9 64 -6z m193 8 c11 -7 10 -16 -7 -52 -28 -61
-35 -89 -23 -89 6 0 11 9 11 19 0 28 16 34 42 17 13 -8 40 -18 61 -21 20 -4
39 -11 42 -15 3 -4 -7 -35 -20 -69 -14 -33 -25 -70 -25 -81 0 -24 -26 -38 -42
-22 -8 8 -4 22 15 49 31 44 52 101 42 111 -3 4 -11 -1 -16 -11 -10 -17 -40
-23 -53 -10 -4 4 -26 12 -49 18 l-42 11 -3 -53 c-2 -29 2 -62 8 -73 15 -28 -5
-57 -27 -39 -10 9 -12 31 -6 103 8 106 7 143 -2 173 -5 17 -3 25 10 29 23 9
43 -12 27 -28 -14 -14 -16 -98 -3 -98 8 0 33 80 30 97 -3 19 2 43 9 43 4 0 13
-4 21 -9z m-381 -25 c4 -17 0 -18 -37 -12 -23 3 -59 3 -81 0 -32 -5 -40 -11
-40 -28 0 -12 6 -28 13 -35 10 -10 8 -15 -8 -27 -19 -14 -19 -16 -2 -28 17
-13 17 -15 0 -45 -25 -43 -10 -64 53 -72 27 -3 54 -2 60 2 6 5 19 3 30 -6 18
-13 18 -15 2 -31 -16 -16 -18 -16 -42 -1 -14 10 -36 17 -50 17 -46 0 -76 18
-76 44 0 14 -5 36 -11 50 -9 20 -9 29 1 41 8 10 9 15 1 15 -14 0 -15 47 -1 55
6 3 10 17 10 30 0 30 10 36 79 45 77 11 95 8 99 -14z m669 14 c26 0 45 -5 47
-12 2 -7 9 -42 16 -78 6 -36 20 -84 30 -107 15 -35 16 -44 5 -53 -24 -20 -32
-4 -50 97 -25 148 -17 137 -91 130 -60 -6 -64 -5 -64 15 0 18 4 20 31 14 17
-3 51 -6 76 -6z m308 -11 c0 -10 -11 -13 -43 -11 -38 2 -43 0 -53 -25 -7 -17
-9 -72 -6 -141 4 -111 4 -113 -17 -110 -13 2 -19 9 -17 18 10 38 12 199 3 217
-8 14 -8 23 -1 30 7 7 -4 10 -37 7 -53 -3 -65 1 -58 19 7 19 229 15 229 -4z
m135 10 c25 1 57 4 73 7 20 4 29 1 33 -11 9 -22 -13 -35 -47 -28 -25 5 -30 1
-44 -33 -15 -36 -16 -77 -3 -174 2 -19 -2 -26 -18 -28 -21 -3 -21 0 -19 112 2
63 5 118 8 123 7 11 -44 13 -63 3 -22 -12 -44 4 -36 25 5 13 13 15 38 9 18 -4
53 -6 78 -5z m375 -9 c0 -12 -16 -14 -92 -11 l-91 3 -20 -38 c-11 -22 -17 -45
-15 -52 3 -7 0 -19 -7 -26 -8 -11 -8 -16 0 -21 6 -4 9 -14 6 -22 -3 -8 4 -33
15 -55 l21 -41 94 6 c96 7 117 0 93 -29 -7 -9 -19 -12 -28 -8 -9 4 -51 8 -94
10 -83 3 -107 13 -107 48 0 12 -8 33 -17 46 -27 39 -24 85 11 143 l31 52 85 6
c109 7 115 7 115 -11z m252 3 c8 -22 -22 -32 -65 -22 -71 16 -109 -7 -125 -73
-7 -25 -4 -28 35 -38 24 -6 52 -15 64 -21 11 -6 24 -9 30 -8 21 4 33 -2 37
-18 4 -14 5 -13 6 4 1 17 -9 24 -46 37 -26 9 -59 16 -75 16 -31 0 -48 24 -30
42 13 13 55 0 46 -14 -4 -6 -2 -8 3 -5 12 8 105 -22 114 -35 4 -6 6 -37 5 -71
-2 -52 -5 -63 -21 -66 -10 -2 -25 -9 -32 -17 -10 -9 -20 -11 -31 -5 -10 5 -41
7 -70 4 -47 -4 -52 -3 -52 15 0 18 6 19 80 17 72 -2 80 -1 80 16 0 11 5 19 10
19 6 0 10 4 10 10 0 5 -7 7 -16 3 -10 -4 -22 0 -29 10 -6 9 -41 27 -76 40 -51
18 -64 27 -62 42 6 46 5 61 -2 77 -13 32 43 54 131 53 43 -1 79 -6 81 -12z
m-1458 -84 c1 -20 -1 -38 -4 -41 -10 -9 -125 37 -147 60 l-21 21 27 7 c14 3
39 1 55 -6 32 -13 70 0 72 23 1 26 18 -30 18 -64z m277 25 c-7 -33 13 -129 36
-180 11 -24 16 -25 67 -22 48 3 56 0 59 -16 4 -16 0 -18 -28 -12 -18 3 -52 6
-75 6 -41 0 -44 2 -50 32 -3 18 -15 72 -27 120 -17 71 -19 90 -8 103 19 23 33
7 26 -31z m-877 -9 c13 -22 28 -35 41 -35 11 0 20 -2 20 -4 0 -12 -55 -132
-63 -137 -11 -7 -48 -5 -93 6 l-32 7 -1 93 c-2 104 -5 100 76 104 26 1 35 -5
52 -34z m1013 -65 c20 -105 18 -110 -43 -110 l-35 0 -24 80 c-18 66 -21 86
-11 106 10 22 17 25 53 22 l42 -3 18 -95z m815 86 c4 -4 7 -30 8 -59 l0 -52
60 -20 c73 -24 85 -31 85 -52 0 -12 -9 -14 -42 -11 -24 3 -50 8 -59 12 -10 4
-23 1 -33 -10 -16 -15 -18 -15 -35 0 -14 13 -24 14 -45 6 -15 -5 -51 -10 -81
-10 -53 0 -53 0 -69 41 -12 30 -15 55 -10 88 12 82 13 83 120 78 52 -2 97 -7
101 -11z m-1552 -60 c38 -1 50 -5 50 -16 0 -12 -11 -14 -48 -13 -27 2 -57 -1
-67 -7 -13 -7 -21 -6 -30 5 -17 20 6 49 29 39 9 -4 39 -8 66 -8z m169 -86 c12
0 30 -7 40 -15 20 -15 20 -15 0 -30 -24 -18 -38 -18 -81 -3 -28 10 -36 10 -50
-5 -16 -15 -18 -15 -35 0 -13 12 -34 16 -78 14 -70 -2 -88 16 -51 52 17 18 32
22 76 20 30 -1 57 2 60 6 2 5 26 -2 52 -15 25 -13 56 -24 67 -24z m965 -75
c29 -1 69 2 88 8 37 11 58 1 44 -22 -6 -10 -37 -13 -115 -13 -59 0 -109 2
-113 5 -3 4 -3 14 1 23 4 11 12 14 24 8 9 -4 41 -8 71 -9z"/>
<path d="M961 354 c0 -11 3 -14 6 -6 3 7 2 16 -1 19 -3 4 -6 -2 -5 -13z"/>
<path d="M1060 264 c0 -8 5 -12 10 -9 6 3 10 10 10 16 0 5 -4 9 -10 9 -5 0
-10 -7 -10 -16z"/>
<path d="M1091 204 c0 -11 3 -14 6 -6 3 7 2 16 -1 19 -3 4 -6 -2 -5 -13z"/>
<path d="M1230 449 c0 -5 5 -7 10 -4 6 3 10 8 10 11 0 2 -4 4 -10 4 -5 0 -10
-5 -10 -11z"/>
<path d="M1240 349 c0 -5 5 -7 10 -4 6 3 10 8 10 11 0 2 -4 4 -10 4 -5 0 -10
-5 -10 -11z"/>
<path d="M1255 330 c-3 -5 1 -10 9 -10 8 0 18 5 21 10 3 6 -1 10 -9 10 -8 0
-18 -4 -21 -10z"/>
<path d="M840 449 c0 -5 5 -7 10 -4 6 3 10 8 10 11 0 2 -4 4 -10 4 -5 0 -10
-5 -10 -11z"/>
<path d="M690 300 c0 -5 5 -10 11 -10 5 0 7 5 4 10 -3 6 -8 10 -11 10 -2 0 -4
-4 -4 -10z"/>
<path d="M1810 450 c0 -5 5 -10 10 -10 6 0 10 5 10 10 0 6 -4 10 -10 10 -5 0
-10 -4 -10 -10z"/>
<path d="M2110 350 c0 -5 5 -10 11 -10 5 0 7 5 4 10 -3 6 -8 10 -11 10 -2 0
-4 -4 -4 -10z"/>
<path d="M2415 420 c-3 -5 -1 -10 4 -10 6 0 11 5 11 10 0 6 -2 10 -4 10 -3 0
-8 -4 -11 -10z"/>
<path d="M2451 354 c0 -11 3 -14 6 -6 3 7 2 16 -1 19 -3 4 -6 -2 -5 -13z"/>
<path d="M2551 264 c0 -11 3 -14 6 -6 3 7 2 16 -1 19 -3 4 -6 -2 -5 -13z"/>
<path d="M2581 204 c0 -11 3 -14 6 -6 3 7 2 16 -1 19 -3 4 -6 -2 -5 -13z"/>
<path d="M2410 180 c0 -5 5 -10 10 -10 6 0 10 5 10 10 0 6 -4 10 -10 10 -5 0
-10 -4 -10 -10z"/>
<path d="M740 329 c0 -5 5 -7 10 -4 6 3 10 8 10 11 0 2 -4 4 -10 4 -5 0 -10
-5 -10 -11z"/>
<path d="M2060 180 c0 -5 5 -10 11 -10 5 0 7 5 4 10 -3 6 -8 10 -11 10 -2 0
-4 -4 -4 -10z"/>
<path d="M2675 98 c-9 -29 -18 -59 -20 -65 -3 -7 0 -13 5 -13 6 0 10 7 10 15
0 8 5 15 11 15 6 0 9 7 5 15 -3 8 -1 25 4 37 8 19 10 15 9 -22 -2 -61 -1 -70
12 -70 12 0 3 120 -11 133 -4 5 -15 -15 -25 -45z"/>
<path d="M2730 130 c-10 -6 -11 -10 -2 -10 6 0 12 -11 12 -25 0 -25 25 -36 32
-13 6 17 38 18 38 1 0 -10 -6 -13 -16 -9 -8 3 -12 2 -9 -4 3 -6 18 -10 33 -9
15 0 21 3 15 6 -7 2 -13 15 -13 28 0 13 -4 27 -10 30 -5 3 -10 1 -10 -5 0 -7
-7 -5 -16 4 -18 18 -33 20 -54 6z m40 -19 c0 -11 -4 -23 -10 -26 -6 -4 -10 5
-10 19 0 14 5 26 10 26 6 0 10 -9 10 -19z"/>
</g>
</svg>
